<svg width="319" height="315" viewBox="0 0 319 315" fill="none" xmlns="http://www.w3.org/2000/svg">
<path d="M307.946 149.875H271.624L293.733 127.788C296.891 124.633 296.891 119.9 293.733 116.745C290.574 113.589 285.837 113.589 282.678 116.745L249.515 149.875H224.774L237.934 136.728C241.092 133.573 241.092 128.84 237.934 125.684C234.776 122.529 230.038 122.529 226.88 125.684L202.665 149.875H177.398L224.774 102.546H271.624C275.835 102.546 279.52 98.8648 279.52 94.6578C279.52 90.4507 275.835 86.7696 271.624 86.7696H240.566L269.518 57.8464C272.677 54.6911 272.677 49.9583 269.518 46.803C266.36 43.6477 261.622 43.6477 258.464 46.803L229.512 75.7262V44.6995C228.985 39.9666 225.827 36.8113 221.089 36.8113C216.351 36.8113 213.193 40.4925 213.193 44.6995V91.5025L165.817 138.831V113.589L190.031 89.399C193.19 86.2437 193.19 81.5108 190.031 78.3556C186.873 75.2003 182.135 75.2003 178.977 78.3556L165.817 91.5025V66.7863L198.98 33.6561C202.139 30.5008 202.139 25.7679 198.98 22.6127C195.822 19.4574 191.084 19.4574 187.926 22.6127L165.817 44.6995V7.88815C165.817 3.68113 162.132 0 157.921 0C153.71 0 150.025 3.68113 150.025 7.88815V44.1736L127.916 22.0868C124.757 18.9316 120.02 18.9316 116.861 22.0868C113.703 25.2421 113.703 29.975 116.861 33.1302L150.025 66.2604V90.9766L136.865 77.8297C133.706 74.6744 128.969 74.6744 125.81 77.8297C122.652 80.985 122.652 85.7179 125.81 88.8731L150.025 113.063V138.305L102.649 90.9766V44.1736C102.649 39.9666 98.9637 36.8113 94.7525 36.8113C90.5413 36.8113 86.8564 40.4925 86.8564 44.6995V75.7262L57.9043 46.803C54.7459 43.6477 50.0083 43.6477 46.8498 46.803C43.6914 49.9583 43.6914 54.6911 46.8498 57.8464L75.802 86.7696H44.7442C40.0066 86.7696 36.8482 89.9249 36.8482 94.6578C36.8482 99.3906 40.533 102.546 44.7442 102.546H91.5941L138.97 149.875H113.703L89.4885 125.684C86.33 122.529 81.5924 122.529 78.434 125.684C75.2756 128.84 75.2756 133.573 78.434 136.728L91.5941 149.875H66.8531L33.6898 116.745C30.5314 113.589 25.7937 113.589 22.6353 116.745C19.4769 119.9 19.4769 124.633 22.6353 127.788L44.7442 149.875H7.89604C3.68482 149.875 0 153.556 0 157.763C0 161.97 3.68482 165.651 7.89604 165.651H44.2178L22.1089 187.738C18.9505 190.893 18.9505 195.626 22.1089 198.781C23.6881 200.359 25.7937 200.885 27.8993 200.885C30.005 200.885 32.1106 200.359 33.6898 198.781L66.8531 165.651H91.5941L77.9076 178.798C74.7492 181.953 74.7492 186.686 77.9076 189.841C79.4868 191.419 81.5924 191.945 83.698 191.945C85.8036 191.945 87.9092 191.419 89.4885 189.841L113.703 165.651H138.97L91.5941 212.98H44.7442C40.0066 212.98 36.8482 216.661 36.8482 220.868C36.8482 225.075 40.533 228.756 44.7442 228.756H75.802L46.8498 257.679C43.6914 260.835 43.6914 265.568 46.8498 268.723C48.429 270.3 50.5347 270.826 52.6403 270.826C54.7459 270.826 56.8515 270.3 58.4307 268.723L87.3828 239.8V270.826C87.3828 275.033 91.0677 278.715 95.2789 278.715C99.4901 278.715 103.175 275.033 103.175 270.826V224.023L150.551 176.694V201.937L125.81 226.127C122.652 229.282 122.652 234.015 125.81 237.17C127.389 238.748 129.495 239.274 131.601 239.274C133.706 239.274 135.812 238.748 137.391 237.17L150.551 224.023V248.74L117.388 281.87C114.229 285.025 114.229 289.758 117.388 292.913C118.967 294.491 121.073 295.017 123.178 295.017C125.284 295.017 127.389 294.491 128.969 292.913L151.078 270.826V307.112C151.078 311.319 154.762 315 158.974 315C163.185 315 166.87 311.319 166.87 307.112V270.826L188.979 292.913C190.558 294.491 192.663 295.017 194.769 295.017C196.875 295.017 198.98 294.491 200.559 292.913C203.718 289.758 203.718 285.025 200.559 281.87L167.396 248.74V224.023L180.556 237.17C182.135 238.748 184.241 239.274 186.347 239.274C188.452 239.274 190.558 238.748 192.137 237.17C195.295 234.015 195.295 229.282 192.137 226.127L167.922 201.937V176.694L215.299 224.023V270.826C215.299 275.033 218.984 278.715 223.195 278.715C227.406 278.715 231.091 275.033 231.091 270.826V239.8L260.043 268.723C261.622 270.3 263.728 270.826 265.833 270.826C267.939 270.826 270.045 270.3 271.624 268.723C274.782 265.568 274.782 260.835 271.624 257.679L242.672 228.756H273.729C277.941 228.756 281.625 225.075 281.625 220.868C281.625 216.661 277.941 212.98 273.729 212.98H226.88L179.503 165.651H204.771L228.985 189.841C230.564 191.419 232.67 191.945 234.776 191.945C236.881 191.945 238.987 191.419 240.566 189.841C243.724 186.686 243.724 181.953 240.566 178.798L227.406 165.651H252.147L285.31 198.781C286.889 200.359 288.995 200.885 291.101 200.885C293.206 200.885 295.312 200.359 296.891 198.781C300.05 195.626 300.05 190.893 296.891 187.738L274.782 165.651H311.104C315.315 165.651 319 161.97 319 157.763C319 153.556 312.157 149.875 307.946 149.875Z" fill="#75D6FF"/>
</svg>
